<svg width="1024" height="1024" viewBox="0 0 1024 1024" fill="none" xmlns="http://www.w3.org/2000/svg">
  <rect width="1024" height="1024" fill="#315DA8"/>
  <rect x="40" y="40" width="944" height="944" rx="210" fill="#315DA8"/>
  <path d="M196 362C196 298.935 247.114 248 310.4 248H702.8C766.086 248 817.2 298.935 817.2 362V666C817.2 729.065 766.086 780 702.8 780H310.4C247.114 780 196 729.065 196 666V362Z" fill="#F8FAFF"/>
  <path d="M256 390C256 358.52 281.52 333 313 333H686C717.48 333 743 358.52 743 390V648C743 679.48 717.48 705 686 705H313C281.52 705 256 679.48 256 648V390Z" fill="#DDE9FF"/>
  <path d="M302 431C302 408.909 319.909 391 342 391H715C759.183 391 795 426.817 795 471V650C795 694.183 759.183 730 715 730H342C319.909 730 302 712.091 302 690V431Z" fill="#FFFFFF"/>
  <path d="M302 431C302 408.909 319.909 391 342 391H715C759.183 391 795 426.817 795 471V650C795 694.183 759.183 730 715 730H342C319.909 730 302 712.091 302 690V431Z" stroke="#12325F" stroke-width="42"/>
  <path d="M676 519C676 495.804 694.804 477 718 477H795V646H718C694.804 646 676 627.196 676 604V519Z" fill="#2F6B4F"/>
  <circle cx="724" cy="562" r="25" fill="#D7F2E2"/>
  <path d="M453 653V460L392 500V447L469 395H526V653H453Z" fill="#315DA8"/>
</svg>
